<?xml version="1.0" standalone="no"?>
<!DOCTYPE svg PUBLIC "-//W3C//DTD SVG 20010904//EN"
 "http://www.w3.org/TR/2001/REC-SVG-20010904/DTD/svg10.dtd">
<svg version="1.0" xmlns="http://www.w3.org/2000/svg"
 width="256.000000pt" height="256.000000pt" viewBox="0 0 256.000000 256.000000"
 preserveAspectRatio="xMidYMid meet">
<metadata>
Created by potrace 1.14, written by Peter Selinger 2001-2017
</metadata>
<g transform="translate(0.000000,256.000000) scale(0.100000,-0.100000)"
fill="#000000" stroke="none">
<path d="M1770 2337 c-3 -3 -17 -8 -30 -11 -24 -4 -271 -73 -360 -101 -25 -7
-245 -70 -490 -140 -245 -70 -461 -135 -480 -145 -84 -43 -148 -144 -154 -242
-3 -38 5 -82 27 -153 l30 -100 6 -505 c6 -503 6 -505 29 -552 41 -82 118 -145
200 -163 19 -4 352 -7 740 -6 551 0 716 3 747 13 56 18 105 53 142 103 63 80
62 77 63 609 0 348 -3 491 -11 510 -7 15 -25 29 -43 35 -18 5 -272 9 -613 8
-320 -1 -579 1 -575 4 7 7 659 197 872 254 67 19 228 67 253 77 52 20 58 54
26 161 -11 38 -22 77 -24 86 -19 97 -87 191 -166 231 -42 22 -176 40 -189 27z
m165 -210 c21 -33 58 -158 48 -167 -8 -8 -255 -81 -259 -77 -1 1 19 40 45 87
26 47 52 94 58 105 52 92 54 95 74 85 10 -6 26 -21 34 -33z m-273 -19 c-10
-18 -51 -91 -90 -163 l-71 -130 -137 -38 c-75 -21 -138 -36 -141 -34 -2 3 35
76 84 162 l88 158 125 37 c69 21 133 38 142 39 17 1 17 -1 0 -31z m-579 -276
l-88 -160 -139 -41 c-77 -22 -141 -39 -143 -37 -2 2 35 72 82 157 47 84 85
156 85 159 0 4 53 21 118 39 64 18 128 36 142 40 14 5 26 7 28 6 2 -2 -36 -75
-85 -163z m-423 12 c0 -3 -31 -62 -70 -131 -38 -69 -70 -128 -70 -130 0 -13
-43 -63 -53 -63 -14 0 -46 98 -51 154 -4 41 19 92 52 114 13 8 58 26 101 38
84 25 91 27 91 18z"/>
</g>
</svg>
